<svg xmlns:xlink="http://www.w3.org/1999/xlink" xmlns="http://www.w3.org/2000/svg" width="540pt" height="295.2pt" viewBox="0 0 540 295.2" version="1.1"><defs><style type="text/css">*{stroke-linejoin: round; stroke-linecap: butt}</style></defs><g id="figure_1"><g id="patch_1"><path d="M 0 295.2  L 540 295.2  L 540 0  L 0 0  z " style="fill: #ffffff"/></g><g id="axes_1"><g id="patch_2"><path d="M 70.544 253.24  L 529.2 253.24  L 529.2 10.8  L 70.544 10.8  z " style="fill: #ffffff"/></g><g id="matplotlib.axis_1"><g id="xtick_1"><g id="line2d_1"><defs><path id="maeaa3a4768" d="M 0 0  L 0 3.5  " style="stroke: #000000; stroke-width: 0.8"/></defs><g><use xlink:href="#maeaa3a4768" x="127.876" y="253.24" style="stroke: #000000; stroke-width: 0.8"/></g></g><g id="text_1"><text style="font-size: 10.5px; font-family: 'DejaVu Serif'; text-anchor: middle" x="127.876" y="268.218359" transform="rotate(-0 127.876 268.218359)">6</text></g></g><g id="xtick_2"><g id="line2d_2"><g><use xlink:href="#maeaa3a4768" x="216.079077" y="253.24" style="stroke: #000000; stroke-width: 0.8"/></g></g><g id="text_2"><text style="font-size: 10.5px; font-family: 'DejaVu Serif'; text-anchor: middle" x="216.079077" y="268.218359" transform="rotate(-0 216.079077 268.218359)">7</text></g></g><g id="xtick_3"><g id="line2d_3"><g><use xlink:href="#maeaa3a4768" x="304.282154" y="253.24" style="stroke: #000000; stroke-width: 0.8"/></g></g><g id="text_3"><text style="font-size: 10.5px; font-family: 'DejaVu Serif'; text-anchor: middle" x="304.282154" y="268.218359" transform="rotate(-0 304.282154 268.218359)">8</text></g></g><g id="xtick_4"><g id="line2d_4"><g><use xlink:href="#maeaa3a4768" x="392.485231" y="253.24" style="stroke: #000000; stroke-width: 0.8"/></g></g><g id="text_4"><text style="font-size: 10.5px; font-family: 'DejaVu Serif'; text-anchor: middle" x="392.485231" y="268.218359" transform="rotate(-0 392.485231 268.218359)">9</text></g></g><g id="xtick_5"><g id="line2d_5"><g><use xlink:href="#maeaa3a4768" x="480.688308" y="253.24" style="stroke: #000000; stroke-width: 0.8"/></g></g><g id="text_5"><text style="font-size: 10.5px; font-family: 'DejaVu Serif'; text-anchor: middle" x="480.688308" y="268.218359" transform="rotate(-0 480.688308 268.218359)">10</text></g></g><g id="text_6"><text style="font-size: 11px; font-family: 'DejaVu Serif'; text-anchor: middle" x="299.872" y="282.760312" transform="rotate(-0 299.872 282.760312)">Вероятность превышения за 3600 с, %</text></g></g><g id="matplotlib.axis_2"><g id="ytick_1"><g id="line2d_6"><defs><path id="m40c79bae22" d="M 0 0  L -3.5 0  " style="stroke: #000000; stroke-width: 0.8"/></defs><g><use xlink:href="#m40c79bae22" x="70.544" y="246.396935" style="stroke: #000000; stroke-width: 0.8"/></g></g><g id="text_7"><text style="font-size: 10.5px; font-family: 'DejaVu Serif'; text-anchor: end" x="63.544" y="250.386115" transform="rotate(-0 63.544 250.386115)">1500</text></g></g><g id="ytick_2"><g id="line2d_7"><g><use xlink:href="#m40c79bae22" x="70.544" y="197.517903" style="stroke: #000000; stroke-width: 0.8"/></g></g><g id="text_8"><text style="font-size: 10.5px; font-family: 'DejaVu Serif'; text-anchor: end" x="63.544" y="201.507083" transform="rotate(-0 63.544 201.507083)">2000</text></g></g><g id="ytick_3"><g id="line2d_8"><g><use xlink:href="#m40c79bae22" x="70.544" y="148.638871" style="stroke: #000000; stroke-width: 0.8"/></g></g><g id="text_9"><text style="font-size: 10.5px; font-family: 'DejaVu Serif'; text-anchor: end" x="63.544" y="152.628051" transform="rotate(-0 63.544 152.628051)">2500</text></g></g><g id="ytick_4"><g id="line2d_9"><g><use xlink:href="#m40c79bae22" x="70.544" y="99.759839" style="stroke: #000000; stroke-width: 0.8"/></g></g><g id="text_10"><text style="font-size: 10.5px; font-family: 'DejaVu Serif'; text-anchor: end" x="63.544" y="103.749018" transform="rotate(-0 63.544 103.749018)">3000</text></g></g><g id="ytick_5"><g id="line2d_10"><g><use xlink:href="#m40c79bae22" x="70.544" y="50.880806" style="stroke: #000000; stroke-width: 0.8"/></g></g><g id="text_11"><text style="font-size: 10.5px; font-family: 'DejaVu Serif'; text-anchor: end" x="63.544" y="54.869986" transform="rotate(-0 63.544 54.869986)">3500</text></g></g><g id="text_12"><text style="font-size: 11px; font-family: 'DejaVu Serif'" transform="translate(18.059844 203.956562) rotate(-90)">Среднее число проходов</text><text style="font-size: 11px; font-family: 'DejaVu Serif'" transform="translate(30.377438 215.721406) rotate(-90)">при отсутствии превышения</text></g></g><g id="LineCollection_1"><path d="M 281.795573 232.706769  L 349.015873 232.706769  " clip-path="url(#p35688434f7)" style="fill: none; stroke: #1f77b4; stroke-width: 1.5"/></g><g id="LineCollection_2"><path d="M 314.866523 234.337997  L 314.866523 231.075541  " clip-path="url(#p35688434f7)" style="fill: none; stroke: #1f77b4; stroke-width: 1.5"/></g><g id="line2d_11"><defs><path id="ma9ccc6180f" d="M 0 3  L 0 -3  " style="stroke: #1f77b4"/></defs><g clip-path="url(#p35688434f7)"><use xlink:href="#ma9ccc6180f" x="281.795573" y="232.706769" style="fill: #1f77b4; stroke: #1f77b4"/></g></g><g id="line2d_12"><g clip-path="url(#p35688434f7)"><use xlink:href="#ma9ccc6180f" x="349.015873" y="232.706769" style="fill: #1f77b4; stroke: #1f77b4"/></g></g><g id="line2d_13"><defs><path id="mdafd4199e5" d="M 3 0  L -3 -0  " style="stroke: #1f77b4"/></defs><g clip-path="url(#p35688434f7)"><use xlink:href="#mdafd4199e5" x="314.866523" y="234.337997" style="fill: #1f77b4; stroke: #1f77b4"/></g></g><g id="line2d_14"><g clip-path="url(#p35688434f7)"><use xlink:href="#mdafd4199e5" x="314.866523" y="231.075541" style="fill: #1f77b4; stroke: #1f77b4"/></g></g><g id="LineCollection_3"><path d="M 271.438736 104.7455  L 338.207125 104.7455  " clip-path="url(#p35688434f7)" style="fill: none; stroke: #ff7f0e; stroke-width: 1.5"/></g><g id="LineCollection_4"><path d="M 304.282154 104.7455  L 304.282154 104.7455  " clip-path="url(#p35688434f7)" style="fill: none; stroke: #ff7f0e; stroke-width: 1.5"/></g><g id="line2d_15"><defs><path id="mf714348a98" d="M 0 3  L 0 -3  " style="stroke: #ff7f0e"/></defs><g clip-path="url(#p35688434f7)"><use xlink:href="#mf714348a98" x="271.438736" y="104.7455" style="fill: #ff7f0e; stroke: #ff7f0e"/></g></g><g id="line2d_16"><g clip-path="url(#p35688434f7)"><use xlink:href="#mf714348a98" x="338.207125" y="104.7455" style="fill: #ff7f0e; stroke: #ff7f0e"/></g></g><g id="line2d_17"><defs><path id="m0a227d1f71" d="M 3 0  L -3 -0  " style="stroke: #ff7f0e"/></defs><g clip-path="url(#p35688434f7)"><use xlink:href="#m0a227d1f71" x="304.282154" y="104.7455" style="fill: #ff7f0e; stroke: #ff7f0e"/></g></g><g id="line2d_18"><g clip-path="url(#p35688434f7)"><use xlink:href="#m0a227d1f71" x="304.282154" y="104.7455" style="fill: #ff7f0e; stroke: #ff7f0e"/></g></g><g id="LineCollection_5"><path d="M 97.901794 41.105  L 156.338969 41.105  " clip-path="url(#p35688434f7)" style="fill: none; stroke: #2ca02c; stroke-width: 1.5"/></g><g id="LineCollection_6"><path d="M 126.552954 41.105  L 126.552954 41.105  " clip-path="url(#p35688434f7)" style="fill: none; stroke: #2ca02c; stroke-width: 1.5"/></g><g id="line2d_19"><defs><path id="mc29fb1bce1" d="M 0 3  L 0 -3  " style="stroke: #2ca02c"/></defs><g clip-path="url(#p35688434f7)"><use xlink:href="#mc29fb1bce1" x="97.901794" y="41.105" style="fill: #2ca02c; stroke: #2ca02c"/></g></g><g id="line2d_20"><g clip-path="url(#p35688434f7)"><use xlink:href="#mc29fb1bce1" x="156.338969" y="41.105" style="fill: #2ca02c; stroke: #2ca02c"/></g></g><g id="line2d_21"><defs><path id="m078159aeac" d="M 3 0  L -3 -0  " style="stroke: #2ca02c"/></defs><g clip-path="url(#p35688434f7)"><use xlink:href="#m078159aeac" x="126.552954" y="41.105" style="fill: #2ca02c; stroke: #2ca02c"/></g></g><g id="line2d_22"><g clip-path="url(#p35688434f7)"><use xlink:href="#m078159aeac" x="126.552954" y="41.105" style="fill: #2ca02c; stroke: #2ca02c"/></g></g><g id="LineCollection_7"><path d="M 324.971831 129.087258  L 394.029571 129.087258  " clip-path="url(#p35688434f7)" style="fill: none; stroke: #d62728; stroke-width: 1.5"/></g><g id="LineCollection_8"><path d="M 358.968062 129.087258  L 358.968062 129.087258  " clip-path="url(#p35688434f7)" style="fill: none; stroke: #d62728; stroke-width: 1.5"/></g><g id="line2d_23"><defs><path id="m69eba2464b" d="M 0 3  L 0 -3  " style="stroke: #d62728"/></defs><g clip-path="url(#p35688434f7)"><use xlink:href="#m69eba2464b" x="324.971831" y="129.087258" style="fill: #d62728; stroke: #d62728"/></g></g><g id="line2d_24"><g clip-path="url(#p35688434f7)"><use xlink:href="#m69eba2464b" x="394.029571" y="129.087258" style="fill: #d62728; stroke: #d62728"/></g></g><g id="line2d_25"><defs><path id="m68f9a141ee" d="M 3 0  L -3 -0  " style="stroke: #d62728"/></defs><g clip-path="url(#p35688434f7)"><use xlink:href="#m68f9a141ee" x="358.968062" y="129.087258" style="fill: #d62728; stroke: #d62728"/></g></g><g id="line2d_26"><g clip-path="url(#p35688434f7)"><use xlink:href="#m68f9a141ee" x="358.968062" y="129.087258" style="fill: #d62728; stroke: #d62728"/></g></g><g id="LineCollection_9"><path d="M 227.01626 154.749841  L 291.793989 154.749841  " clip-path="url(#p35688434f7)" style="fill: none; stroke: #9467bd; stroke-width: 1.5"/></g><g id="LineCollection_10"><path d="M 258.857569 156.46617  L 258.857569 153.033512  " clip-path="url(#p35688434f7)" style="fill: none; stroke: #9467bd; stroke-width: 1.5"/></g><g id="line2d_27"><defs><path id="mb10b0c5268" d="M 0 3  L 0 -3  " style="stroke: #9467bd"/></defs><g clip-path="url(#p35688434f7)"><use xlink:href="#mb10b0c5268" x="227.01626" y="154.749841" style="fill: #9467bd; stroke: #9467bd"/></g></g><g id="line2d_28"><g clip-path="url(#p35688434f7)"><use xlink:href="#mb10b0c5268" x="291.793989" y="154.749841" style="fill: #9467bd; stroke: #9467bd"/></g></g><g id="line2d_29"><defs><path id="m7108a14663" d="M 3 0  L -3 -0  " style="stroke: #9467bd"/></defs><g clip-path="url(#p35688434f7)"><use xlink:href="#m7108a14663" x="258.857569" y="156.46617" style="fill: #9467bd; stroke: #9467bd"/></g></g><g id="line2d_30"><g clip-path="url(#p35688434f7)"><use xlink:href="#m7108a14663" x="258.857569" y="153.033512" style="fill: #9467bd; stroke: #9467bd"/></g></g><g id="line2d_31"><path d="M 480.688308 253.24  L 480.688308 10.8  " clip-path="url(#p35688434f7)" style="fill: none; stroke-dasharray: 3.7,1.6; stroke-dashoffset: 0; stroke: #1f77b4"/></g><g id="line2d_32"><defs><path id="m902205d1a1" d="M 0 3  C 0.795609 3 1.55874 2.683901 2.12132 2.12132  C 2.683901 1.55874 3 0.795609 3 0  C 3 -0.795609 2.683901 -1.55874 2.12132 -2.12132  C 1.55874 -2.683901 0.795609 -3 0 -3  C -0.795609 -3 -1.55874 -2.683901 -2.12132 -2.12132  C -2.683901 -1.55874 -3 -0.795609 -3 0  C -3 0.795609 -2.683901 1.55874 -2.12132 2.12132  C -1.55874 2.683901 -0.795609 3 0 3  z " style="stroke: #1f77b4"/></defs><g clip-path="url(#p35688434f7)"><use xlink:href="#m902205d1a1" x="314.866523" y="232.706769" style="fill: #1f77b4; stroke: #1f77b4"/></g></g><g id="line2d_33"><defs><path id="m133dc081d1" d="M -3 3  L 3 3  L 3 -3  L -3 -3  z " style="stroke: #ff7f0e; stroke-linejoin: miter"/></defs><g clip-path="url(#p35688434f7)"><use xlink:href="#m133dc081d1" x="304.282154" y="104.7455" style="fill: #ff7f0e; stroke: #ff7f0e; stroke-linejoin: miter"/></g></g><g id="line2d_34"><defs><path id="mebcc1c2a09" d="M 0 -3  L -3 3  L 3 3  z " style="stroke: #2ca02c; stroke-linejoin: miter"/></defs><g clip-path="url(#p35688434f7)"><use xlink:href="#mebcc1c2a09" x="126.552954" y="41.105" style="fill: #2ca02c; stroke: #2ca02c; stroke-linejoin: miter"/></g></g><g id="line2d_35"><defs><path id="mfce66a3f7c" d="M -0 4.242641  L 4.242641 0  L 0 -4.242641  L -4.242641 -0  z " style="stroke: #d62728; stroke-linejoin: miter"/></defs><g clip-path="url(#p35688434f7)"><use xlink:href="#mfce66a3f7c" x="358.968062" y="129.087258" style="fill: #d62728; stroke: #d62728; stroke-linejoin: miter"/></g></g><g id="line2d_36"><defs><path id="m6dd2d23205" d="M -0 3  L 3 -3  L -3 -3  z " style="stroke: #9467bd; stroke-linejoin: miter"/></defs><g clip-path="url(#p35688434f7)"><use xlink:href="#m6dd2d23205" x="258.857569" y="154.749841" style="fill: #9467bd; stroke: #9467bd; stroke-linejoin: miter"/></g></g><g id="patch_3"><path d="M 70.544 253.24  L 70.544 10.8  " style="fill: none; stroke: #000000; stroke-width: 0.8; stroke-linejoin: miter; stroke-linecap: square"/></g><g id="patch_4"><path d="M 529.2 253.24  L 529.2 10.8  " style="fill: none; stroke: #000000; stroke-width: 0.8; stroke-linejoin: miter; stroke-linecap: square"/></g><g id="patch_5"><path d="M 70.544 253.24  L 529.2 253.24  " style="fill: none; stroke: #000000; stroke-width: 0.8; stroke-linejoin: miter; stroke-linecap: square"/></g><g id="patch_6"><path d="M 70.544 10.8  L 529.2 10.8  " style="fill: none; stroke: #000000; stroke-width: 0.8; stroke-linejoin: miter; stroke-linecap: square"/></g><g id="text_13"><text style="font-size: 10.5px; font-family: 'DejaVu Serif'; text-anchor: start" x="326.866523" y="248.706769" transform="rotate(-0 326.866523 248.706769)">Предложенный метод</text></g><g id="text_14"><text style="font-size: 10.5px; font-family: 'DejaVu Serif'; text-anchor: middle" x="282.282154" y="87.7455" transform="rotate(-0 282.282154 87.7455)">Тот же, без показаний</text></g><g id="text_15"><text style="font-size: 10.5px; font-family: 'DejaVu Serif'; text-anchor: start" x="134.552954" y="29.105" transform="rotate(-0 134.552954 29.105)">Постоянный период</text></g><g id="text_16"><text style="font-size: 10.5px; font-family: 'DejaVu Serif'; text-anchor: middle" x="360.968062" y="114.087258" transform="rotate(-0 360.968062 114.087258)">Два заданных периода</text></g><g id="text_17"><text style="font-size: 10.5px; font-family: 'DejaVu Serif'; text-anchor: middle" x="250.857569" y="138.749841" transform="rotate(-0 250.857569 138.749841)">Алгоритм [2]</text></g><g id="text_18"><text style="font-size: 10.5px; font-family: 'DejaVu Serif'" transform="translate(497.486975 97.445791) rotate(-90)">ε = 10%</text></g></g></g><defs><clipPath id="p35688434f7"><rect x="70.544" y="10.8" width="458.656" height="242.44"/></clipPath></defs></svg>
